<?xml version="1.0" encoding="UTF-8"?>
<svg id="Layer_2" data-name="Layer 2" xmlns="http://www.w3.org/2000/svg" viewBox="0 0 860.32 204.01">
  <defs>
    <style>
      .cls-1 {
        fill: #fff;
        fill-rule: evenodd;
      }
    </style>
  </defs>
  <g id="Layer_1-2" data-name="Layer 1">
    <path class="cls-1" d="M753.05,143.96h20.42v-35.89c0-20.23-15.13-37.75-35.28-39.53-23.02-2.03-42.33,16.05-42.33,38.65v36.76h20.42v-36.19c0-9.21,6.54-17.45,15.66-18.76,11.36-1.63,21.11,7.14,21.11,18.19v36.76ZM531.72,145.99c-7.13.23-13.85-1.46-19.68-4.6v31.17h-20.42v-64.37c0-20.5,15.48-38.22,35.93-39.69,22.61-1.63,41.49,16.13,41.68,38.35.18,20.82-16.7,38.45-37.51,39.13ZM511.21,106.87c0,10.15,8.23,18.38,18.38,18.38s18.38-8.23,18.38-18.38-8.23-18.38-18.38-18.38-18.38,8.23-18.38,18.38ZM665.22,143.96v-2.58c-5.84,3.14-12.57,4.84-19.71,4.6-20.79-.7-37.64-18.3-37.47-39.09.18-22.25,19.07-40.04,41.72-38.39,20.42,1.49,35.89,19.18,35.89,39.65v35.81h-20.42ZM664.39,106.87c0,10.15-8.23,18.38-18.38,18.38s-18.38-8.23-18.38-18.38,8.23-18.38,18.38-18.38,18.38,8.23,18.38,18.38ZM316.95,147.6c-23.75,0-41.6-17.4-41.6-40.39s17.85-40.39,41.6-40.39c20.73,0,37.22,13.46,39.79,32.22h-23.45c-2.59-7.95-11.74-12.74-21.64-10.21-7.07,1.81-12.37,7.93-13.38,15.16-1.75,12.47,6.74,22.29,18.68,22.29,7.72,0,14.22-4.39,16.34-10.89h23.45c-2.57,18.76-19.06,32.22-39.79,32.22ZM411.97,92.59c0-15.89,8.81-24.19,25.74-24.19h11.02v18.38h-7.51c-5.59,0-8.83,2.9-8.83,7.88v49.31h-20.42v-51.37ZM391.32,143.96c-17.31,0-26.32-8.32-26.32-24.22V50.02h20.42v20.42h16.34v18.38h-16.34v26.61c0,5.12,3.24,8.11,8.83,8.11h7.51v20.42h-10.44ZM458.94,39.8v104.16h20.42V39.8h-20.42ZM577.4,143.96V39.8h20.42v104.16h-20.42ZM803.04,99.03c2.33-8.16,8.74-13.41,17.2-13.41s15.16,5.25,17.34,13.41h-34.54ZM780.16,106.47c0,22.15,17.2,38.91,40.23,38.91,18.36,0,33.23-10.2,38.77-25.92h-22.74c-3.06,4.79-8.6,7.71-15.45,7.71-8.89,0-15.74-5.39-18.07-13.83h56.84c.44-1.91.58-4.39.58-6.43,0-22.74-17.34-39.35-40.08-39.35s-40.08,16.76-40.08,38.91ZM23.05,109.24c0-10.84,2.14-21.58,6.29-31.6,4.15-10.02,10.23-19.12,17.9-26.79,7.67-7.67,16.77-13.75,26.79-17.9,10.02-4.15,20.75-6.29,31.6-6.29v41.97c-3.07-.62-6.29-.84-9.6-.58-16.71,1.28-30.3,14.88-31.58,31.59-.25,3.31-.04,6.52.58,9.59H23.05ZM199.73,92.13c4.65,50-26.07,93.49-69.61,107.44v-31.06c7.55-3.93,14.46-9.04,20.47-15.17,7.52-7.67,13.48-16.77,17.54-26.79,4.07-10.02,6.16-20.75,6.16-31.6h-41.14c.74,3.71.89,7.63.35,11.67-1.99,15.01-13.78,27.26-28.78,29.29-3.93.53-7.75.37-11.36-.37v68.48C41.22,200.47,0,156.21,0,102.12,0,43.14,49-4.15,107.74.29c48.8,3.69,87.46,43.12,92,91.84Z"/>
  </g>
</svg>